# xmcd
#
# Track frame offsets: 
#        150
#        17750
#        36127
#
# Disc length: 696 seconds
#
# Revision: 4
# Processed by: cddbd v1.5.2PL0 Copyright (c) Steve Scherf et al.
# Submitted via: ExactAudioCopy v0.95b4
#
DISCID=1a02b603
DTITLE=S Club 7 - Don't Stop Movin' [CD2)
DYEAR=2001
DGENRE=Pop
TTITLE0=Don't Stop Movin'
TTITLE1=Reach (Karaoke Version)
TTITLE2=Bring It All Back (Karaoke Version)
EXTD=YEAR: 1996
EXTT0=
EXTT1=
EXTT2=
PLAYORDER=
